<svg width="24" height="24" viewBox="0 0 24 24" fill="none" xmlns="http://www.w3.org/2000/svg">
  <mask id="mask0_109_396" style="mask-type:luminance" maskUnits="userSpaceOnUse" x="0" y="0"
    width="24" height="24">
    <path
      d="M24 12C24 5.37258 18.6274 0 12 0C5.37258 0 0 5.37258 0 12C0 18.6274 5.37258 24 12 24C18.6274 24 24 18.6274 24 12Z"
      fill="white" />
  </mask>
  <g mask="url(#mask0_109_396)">
    <path
      d="M12 0.25C18.4893 0.25 23.75 5.51065 23.75 12C23.75 18.4893 18.4893 23.75 12 23.75C5.51065 23.75 0.25 18.4893 0.25 12C0.25 5.51065 5.51065 0.25 12 0.25Z"
      stroke="#000000" stroke-width="0.5" />
    <path
      d="M11.9795 3.66042C12.1829 3.54886 12.4392 3.7348 12.448 3.98309C12.4225 9.5467 12.4083 15.1168 12.3671 20.6827C12.4485 21.1584 11.7403 21.2793 11.7061 20.7959C11.71 15.2044 11.7546 9.61232 11.7741 4.02137C11.7678 3.86769 11.8502 3.71621 11.9795 3.66042Z"
      fill="#000000" />
    <path
      d="M11.3188 3.05281C11.6183 3.01499 11.8362 3.40182 11.6183 3.62877C9.08768 7.44962 6.48466 11.2215 3.93598 15.0308C3.69893 15.3748 3.12669 15.0097 3.34763 14.6516C5.84547 10.9109 8.39618 7.20704 10.8956 3.46839C11.0103 3.30952 11.0943 3.074 11.3188 3.05281Z"
      fill="#000000" />
    <path
      d="M12.6796 3.07729C12.8397 3.00288 13.0223 3.09096 13.1095 3.23169C13.996 4.57722 14.8921 5.9177 15.7872 7.25817C17.4719 9.67944 18.9948 12.2059 20.6126 14.6713C20.7794 14.8727 20.6713 15.2079 20.4036 15.2464C20.1363 15.2904 19.9971 15.0215 19.8792 14.8337C17.5295 11.0346 14.9865 7.36144 12.523 3.63565C12.3781 3.45797 12.4511 3.14563 12.6796 3.07729Z"
      fill="#000000" />
    <path
      d="M10.8649 10.7454C11.1029 10.5534 11.5277 10.6955 11.4891 10.9719C11.4854 11.1865 11.2264 11.3029 11.054 11.425C9.01728 12.733 6.99696 14.0641 4.94199 15.3472C4.55074 15.5824 4.16769 15.0762 4.53262 14.8244C6.63657 13.4567 8.75496 12.1059 10.8649 10.7454Z"
      fill="#000000" />
    <path
      d="M13.1649 10.6489C13.2954 10.6474 13.4074 10.7246 13.5115 10.7918C15.5254 12.1282 17.5776 13.4201 19.565 14.7888C19.9286 15.0583 19.4803 15.5701 19.1082 15.2811C17.0777 13.9242 15.0179 12.603 12.9798 11.2552C12.6696 11.0716 12.8071 10.6209 13.1649 10.6489Z"
      fill="#000000" />
    <path
      d="M4.29578 15.5865C4.50003 15.6307 4.65435 15.7787 4.82646 15.8835C6.93644 17.3102 9.11253 18.6413 11.2041 20.0933C11.5155 20.3409 11.1291 20.8172 10.7942 20.6105C8.56976 19.1426 6.3617 17.6471 4.11135 16.2172C3.75661 16.0632 3.9217 15.5234 4.29578 15.5865Z"
      fill="#000000" />
    <path
      d="M19.8256 15.6375C20.2078 15.4018 20.5571 15.9851 20.1768 16.1979C17.9072 17.6598 15.6596 19.157 13.3835 20.6109C12.9943 20.8096 12.7023 20.2364 13.0643 20.0266C15.3092 18.5499 17.595 17.1347 19.8256 15.6375Z"
      fill="#000000" />
  </g>
</svg>