<svg width="136" height="136" viewBox="0 0 136 136" fill="none" xmlns="http://www.w3.org/2000/svg">
  <path
    d="M68 136C105.556 136 136 105.555 136 67.9995C136 30.4452 105.556 0 68 0C30.4444 0 0 30.4452 0 67.9995C0 105.555 30.4444 136 68 136Z"
    fill="#8B97FF" />
  <path
    d="M102.497 46.0296L90.3831 33.9153C89.1667 32.6989 87.36 32.5336 86.3476 33.5459L33.539 86.3541C32.5267 87.3665 32.6921 89.1732 33.9084 90.3895L46.0228 102.504C47.2392 103.72 49.0459 103.886 50.0583 102.873L102.867 50.065C103.879 49.0527 103.714 47.246 102.497 46.0296Z"
    fill="white" />
  <path
    d="M33.9088 46.0296L46.0232 33.9153C47.2395 32.6989 49.0463 32.5336 50.0586 33.5459L102.867 86.3541C103.88 87.3665 103.714 89.1732 102.498 90.3895L90.3834 102.504C89.1671 103.72 87.3603 103.886 86.348 102.873L33.5394 50.065C32.527 49.0527 32.6924 47.246 33.9088 46.0296Z"
    fill="white" />
</svg>