<svg t="1735653604840" class="icon" viewBox="0 0 1024 1024" version="1.1"
  xmlns="http://www.w3.org/2000/svg" p-id="11320" width="48" height="48">
  <path
    d="M227.541333 693.888H46.549333C20.821333 693.888 0 673.536 0 648.405333V375.594667c0-25.130667 20.821333-45.482667 46.506667-45.482667h181.034666l246.442667-196.949333a23.722667 23.722667 0 0 1 24.704-2.986667c8.106667 3.797333 13.312 11.776 13.312 20.565333v722.517334a22.698667 22.698667 0 0 1-13.312 20.565333 23.722667 23.722667 0 0 1-24.746667-2.986667l-246.314666-196.949333h-0.085334z m598.698667 158.208c-19.072-18.645333-17.493333-49.92 0.341333-69.76A402.858667 402.858667 0 0 0 930.901333 512a403.456 403.456 0 0 0-115.626666-282.368c-19.114667-19.541333-20.906667-51.328-1.28-70.442667 16.64-16.256 42.965333-17.493333 59.605333-1.28A493.312 493.312 0 0 1 1024 512c0 131.413333-51.882667 251.008-136.746667 340.266667-16.512 17.408-43.861333 16.597333-61.013333-0.170667z m-163.2-159.445333c-19.669333-19.2-17.28-51.2-0.768-73.173334a178.773333 178.773333 0 0 0-8.576-225.493333c-18.944-21.632-23.04-55.722667-2.517333-75.776 15.317333-14.933333 39.68-16.853333 55.210666-2.133333a268.202667 268.202667 0 0 1 14.805334 376.618666c-15.36 16.981333-41.813333 15.914667-58.154667-0.042666z"
    p-id="11321" fill="#7D7D7D"></path>
</svg>